<svg width="24" height="21" viewBox="0 0 24 21" fill="none" xmlns="http://www.w3.org/2000/svg">
<path fill-rule="evenodd" clip-rule="evenodd" d="M1.5 10.5001C1.5 10.3343 1.57902 10.1753 1.71967 10.0581C1.86032 9.94091 2.05109 9.87506 2.25 9.87506H19.9395L15.219 5.94256C15.0782 5.8252 14.9991 5.66603 14.9991 5.50006C14.9991 5.33409 15.0782 5.17492 15.219 5.05756C15.3598 4.9402 15.5508 4.87427 15.75 4.87427C15.9492 4.87427 16.1402 4.9402 16.281 5.05756L22.281 10.0576C22.3508 10.1156 22.4063 10.1846 22.4441 10.2605C22.4819 10.3364 22.5013 10.4178 22.5013 10.5001C22.5013 10.5823 22.4819 10.6637 22.4441 10.7396C22.4063 10.8155 22.3508 10.8845 22.281 10.9426L16.281 15.9426C16.1402 16.0599 15.9492 16.1258 15.75 16.1258C15.5508 16.1258 15.3598 16.0599 15.219 15.9426C15.0782 15.8252 14.9991 15.666 14.9991 15.5001C14.9991 15.3341 15.0782 15.1749 15.219 15.0576L19.9395 11.1251H2.25C2.05109 11.1251 1.86032 11.0592 1.71967 10.942C1.57902 10.8248 1.5 10.6658 1.5 10.5001Z" fill="#1E1E1E"/>
</svg>
