<svg width="24" height="24" viewBox="0 0 24 24" fill="none" xmlns="http://www.w3.org/2000/svg">
<g clip-path="url(#clip0_9_32)">
<path d="M24.6 15.75C24.6 15.5511 24.5052 15.3603 24.3364 15.2197C24.1676 15.079 23.9387 15 23.7 15H18.3C18.0613 15 17.8324 15.079 17.6636 15.2197C17.4948 15.3603 17.4 15.5511 17.4 15.75C17.4 15.9489 17.4948 16.1397 17.6636 16.2803C17.8324 16.421 18.0613 16.5 18.3 16.5H23.7C23.9387 16.5 24.1676 16.421 24.3364 16.2803C24.5052 16.1397 24.6 15.9489 24.6 15.75ZM24.6 11.25C24.6 11.0511 24.5052 10.8603 24.3364 10.7197C24.1676 10.579 23.9387 10.5 23.7 10.5H11.1C10.8613 10.5 10.6324 10.579 10.4636 10.7197C10.2948 10.8603 10.2 11.0511 10.2 11.25C10.2 11.4489 10.2948 11.6397 10.4636 11.7803C10.6324 11.921 10.8613 12 11.1 12H23.7C23.9387 12 24.1676 11.921 24.3364 11.7803C24.5052 11.6397 24.6 11.4489 24.6 11.25ZM24.6 6.75C24.6 6.55109 24.5052 6.36032 24.3364 6.21967C24.1676 6.07902 23.9387 6 23.7 6H3.9C3.66131 6 3.43239 6.07902 3.2636 6.21967C3.09482 6.36032 3 6.55109 3 6.75C3 6.94891 3.09482 7.13968 3.2636 7.28033C3.43239 7.42098 3.66131 7.5 3.9 7.5H23.7C23.9387 7.5 24.1676 7.42098 24.3364 7.28033C24.5052 7.13968 24.6 6.94891 24.6 6.75Z" fill="#1E1E1E"/>
</g>
<defs>
<clipPath id="clip0_9_32">
<rect width="24" height="24" fill="white"/>
</clipPath>
</defs>
</svg>
